<svg width="1326" height="308" viewBox="0 0 1326 308" fill="none" xmlns="http://www.w3.org/2000/svg">
<path fill-rule="evenodd" clip-rule="evenodd" d="M1108.41 97.6973C1110.52 83.3983 1115.43 66.6551 1125.6 54.3394C1135.19 42.7396 1150.27 34.0018 1175.93 36.394C1195.81 38.2473 1209.23 47.7429 1218.24 59.0218C1226.79 69.7257 1231.25 81.9551 1232.84 90.2674C1231.55 95.5543 1226.78 109.519 1214.87 128.586L1207.77 139.94L1219.83 145.755C1232.33 151.782 1261.77 180.008 1252.89 242.946H1007.83C1006.32 240.765 1004.39 237.982 1002.17 234.771C996.643 226.772 989.292 216.121 982 205.506C976.533 197.548 971.11 189.626 966.516 182.862C968.92 182.874 971.472 182.883 974.151 182.89C991.896 182.94 1015.37 182.907 1038.76 182.841C1062.15 182.775 1085.49 182.676 1102.98 182.594C1111.72 182.553 1119 182.516 1124.1 182.489L1127.56 182.47L1130.02 182.457L1131.57 182.449L1131.97 182.446L1132.08 182.446L1132.1 182.446L1132.11 182.446C1132.11 182.446 1132.11 182.446 1132.04 170.446L1132.11 182.446L1159.03 182.293L1140.92 162.374C1134.75 155.591 1125.56 143.805 1118.42 131.004C1110.96 117.62 1107.23 105.706 1108.41 97.6973ZM978.649 242.946C973.749 235.85 967.966 227.463 962.218 219.095C954.912 208.461 947.643 197.829 942.307 189.91C939.646 185.963 937.426 182.63 935.913 180.291C935.178 179.154 934.516 178.108 934.043 177.305C933.872 177.014 933.455 176.304 933.101 175.514C932.997 175.284 932.817 174.868 932.639 174.339L932.634 174.324C932.522 173.993 932.075 172.665 932.009 170.913C931.976 170.036 931.986 168.043 932.955 165.758C934.11 163.036 936.513 160.277 940.241 159.044C942.505 158.295 944.514 158.364 945.916 158.588C946.137 158.599 946.448 158.612 946.864 158.627C948.201 158.672 950.196 158.714 952.806 158.75C958.004 158.821 965.373 158.866 974.218 158.891C991.893 158.94 1015.31 158.907 1038.69 158.841C1062.07 158.775 1085.39 158.677 1102.87 158.594L1107.42 158.572C1103.98 153.626 1100.56 148.259 1097.46 142.688C1089.6 128.588 1082.25 110.586 1084.67 94.1943C1087.06 77.9933 1092.9 56.2365 1107.1 39.0522C1121.89 21.152 1144.82 9.38979 1178.16 12.4976C1205.47 15.0443 1224.55 28.4654 1236.99 44.0448C1249.2 59.3303 1255.14 76.7741 1256.91 88.6801L1257.18 90.4622L1256.91 92.2435C1256.68 93.7042 1256.29 95.5478 1255.69 97.7365L1302.13 96.9492C1308.76 96.8369 1314.22 102.118 1314.34 108.744C1314.45 115.371 1309.17 120.833 1302.54 120.946L1246.09 121.903C1244.64 124.831 1243.03 127.907 1241.24 131.113C1262.05 147.505 1284.41 183.797 1277.1 242.946H1313.54C1320.17 242.946 1325.54 248.318 1325.54 254.946C1325.54 261.573 1320.17 266.946 1313.54 266.946L1272.94 266.946H1263.04H1001.54H995.259L947.541 266.946C940.914 266.946 935.541 261.573 935.541 254.946C935.541 248.318 940.914 242.946 947.541 242.946H978.649ZM954.669 165.03C954.67 165.031 954.681 165.051 954.701 165.086C954.678 165.047 954.668 165.029 954.669 165.03ZM939.519 181.56C938.843 181.286 938.334 181.008 938.028 180.83C938.547 181.131 939.056 181.371 939.519 181.56ZM1204.54 79.4458C1204.54 86.3494 1198.94 91.9458 1192.04 91.9458C1185.14 91.9458 1179.54 86.3494 1179.54 79.4458C1179.54 72.5422 1185.14 66.9458 1192.04 66.9458C1198.94 66.9458 1204.54 72.5422 1204.54 79.4458Z" fill="black"/>
<path d="M24.3068 267V66.2727H145.449V87.8352H48.6136V155.659H139.176V177.222H48.6136V245.438H147.017V267H24.3068ZM242.97 270.136C230.425 270.136 219.349 266.967 209.744 260.629C200.139 254.226 192.625 245.209 187.202 233.578C181.778 221.882 179.067 208.062 179.067 192.119C179.067 176.307 181.778 162.585 187.202 150.955C192.625 139.324 200.172 130.339 209.842 124.001C219.513 117.663 230.686 114.494 243.362 114.494C253.163 114.494 260.906 116.128 266.591 119.395C272.341 122.597 276.719 126.256 279.724 130.372C282.795 134.423 285.18 137.756 286.879 140.369H288.839V66.2727H311.97V267H289.624V243.869H286.879C285.18 246.614 282.763 250.077 279.626 254.259C276.49 258.375 272.014 262.067 266.199 265.334C260.384 268.536 252.641 270.136 242.97 270.136ZM246.107 249.358C255.385 249.358 263.226 246.94 269.629 242.105C276.033 237.205 280.901 230.442 284.233 221.817C287.565 213.126 289.232 203.097 289.232 191.727C289.232 180.489 287.598 170.655 284.331 162.226C281.064 153.732 276.229 147.132 269.825 142.428C263.422 137.658 255.516 135.273 246.107 135.273C236.305 135.273 228.138 137.788 221.604 142.82C215.135 147.786 210.267 154.548 207 163.108C203.798 171.602 202.197 181.142 202.197 191.727C202.197 202.443 203.831 212.179 207.098 220.935C210.43 229.625 215.331 236.551 221.8 241.713C228.334 246.81 236.436 249.358 246.107 249.358ZM452.42 205.449V116.455H475.551V267H452.42V241.517H450.852C447.324 249.162 441.835 255.663 434.386 261.021C426.938 266.314 417.528 268.96 406.159 268.96C396.75 268.96 388.386 266.902 381.068 262.786C373.75 258.604 368 252.331 363.818 243.967C359.636 235.538 357.545 224.92 357.545 212.114V116.455H380.676V210.545C380.676 221.523 383.747 230.278 389.889 236.812C396.097 243.347 404.003 246.614 413.608 246.614C419.358 246.614 425.206 245.143 431.152 242.203C437.163 239.263 442.195 234.754 446.246 228.678C450.362 222.601 452.42 214.858 452.42 205.449ZM579.076 270.136C564.962 270.136 552.809 266.804 542.615 260.139C532.422 253.474 524.581 244.294 519.093 232.598C513.604 220.902 510.86 207.54 510.86 192.511C510.86 177.222 513.669 163.729 519.289 152.033C524.973 140.271 532.88 131.091 543.007 124.491C553.201 117.827 565.093 114.494 578.684 114.494C589.269 114.494 598.809 116.455 607.303 120.375C615.797 124.295 622.756 129.784 628.179 136.841C633.603 143.898 636.968 152.131 638.275 161.54H615.144C613.38 154.679 609.459 148.602 603.382 143.31C597.371 137.952 589.269 135.273 579.076 135.273C570.059 135.273 562.152 137.625 555.357 142.33C548.627 146.969 543.367 153.536 539.577 162.03C535.853 170.459 533.99 180.358 533.99 191.727C533.99 203.358 535.82 213.486 539.479 222.111C543.203 230.736 548.431 237.433 555.161 242.203C561.956 246.973 569.928 249.358 579.076 249.358C585.087 249.358 590.543 248.312 595.444 246.222C600.344 244.131 604.493 241.125 607.891 237.205C611.289 233.284 613.706 228.58 615.144 223.091H638.275C636.968 231.977 633.733 239.982 628.571 247.104C623.475 254.161 616.712 259.78 608.283 263.962C599.919 268.078 590.184 270.136 579.076 270.136ZM693.651 212.114L693.259 183.494H697.963L763.827 116.455H792.446L722.27 187.415H720.31L693.651 212.114ZM672.088 267V66.2727H695.219V267H672.088ZM767.748 267L708.941 192.511L725.407 176.438L797.151 267H767.748Z" fill="black"/>
</svg>
