<svg width="16" height="16" viewBox="0 0 395 255" fill="none" xmlns="http://www.w3.org/2000/svg">
<path fill-rule="evenodd" clip-rule="evenodd" d="M177.052 85.6973C179.161 71.3983 184.067 54.6551 194.243 42.3394C203.828 30.7396 218.905 22.0018 244.566 24.394C264.448 26.2473 277.871 35.7429 286.879 47.0218C295.427 57.7257 299.885 69.9551 301.479 78.2674C300.186 83.5543 295.421 97.5193 283.504 116.586L276.408 127.94L288.469 133.755C300.969 139.782 330.412 168.008 321.529 230.946H76.4659C74.9562 228.765 73.0307 225.982 70.8112 222.771C65.282 214.772 57.931 204.121 50.6387 193.506C45.1722 185.548 39.7494 177.626 35.1553 170.862C37.5593 170.874 40.111 170.883 42.7897 170.89C60.5348 170.94 84.0052 170.907 107.397 170.841C130.793 170.775 154.131 170.676 171.618 170.594C180.362 170.553 187.644 170.516 192.74 170.489C195.288 170.475 197.29 170.465 198.655 170.457L200.213 170.449L200.613 170.446L200.714 170.446L200.74 170.446L200.746 170.446C200.747 170.446 200.748 170.446 200.68 158.446L200.748 170.446L227.668 170.293L209.56 150.374C203.394 143.591 194.196 131.805 187.062 119.004C179.603 105.62 175.87 93.7056 177.052 85.6973ZM47.288 230.946C42.3875 223.85 36.6051 215.463 30.8567 207.095C23.5513 196.461 16.282 185.829 10.9455 177.91C8.28535 173.963 6.06482 170.63 4.55228 168.291C3.81653 167.154 3.15474 166.108 2.68242 165.305C2.51127 165.014 2.0942 164.304 1.73959 163.514C1.63617 163.284 1.45597 162.868 1.27806 162.339L1.27309 162.324C1.16139 161.993 0.714149 160.665 0.64785 158.913C0.614692 158.036 0.624596 156.043 1.59417 153.758C2.74892 151.036 5.15229 148.277 8.88009 147.044C11.1441 146.295 13.1532 146.364 14.5548 146.588C14.776 146.599 15.0868 146.612 15.5028 146.627C16.8403 146.672 18.8347 146.714 21.4453 146.75C26.643 146.821 34.0122 146.866 42.8567 146.891C60.5323 146.94 83.9481 146.907 107.329 146.841C130.705 146.775 154.026 146.677 171.505 146.594L176.058 146.572C172.621 141.626 169.203 136.259 166.098 130.688C158.241 116.588 150.89 98.586 153.309 82.1943C155.699 65.9933 161.543 44.2365 175.742 27.0522C190.533 9.15196 213.456 -2.61021 246.794 0.497601C274.113 3.04428 293.19 16.4654 305.632 32.0448C317.839 47.3303 323.779 64.7741 325.55 76.6801L325.815 78.4622L325.545 80.2435C325.324 81.7042 324.926 83.5478 324.326 85.7365L370.774 84.9492C377.4 84.8369 382.863 90.1177 382.975 96.7442C383.088 103.371 377.807 108.833 371.181 108.946L314.729 109.903C313.282 112.831 311.67 115.907 309.883 119.113C330.692 135.505 353.051 171.797 345.734 230.946H382.18C388.808 230.946 394.18 236.318 394.18 242.946C394.18 249.573 388.808 254.946 382.18 254.946L341.58 254.946H331.68H70.1803H63.8983L16.1803 254.946C9.55286 254.946 4.18028 249.573 4.18028 242.946C4.18028 236.318 9.55286 230.946 16.1803 230.946H47.288ZM23.3178 153.047C23.3119 153.036 23.3086 153.031 23.3081 153.03C23.3078 153.03 23.3094 153.033 23.3132 153.04C23.3181 153.049 23.3268 153.064 23.3396 153.086L23.3313 153.071L23.3178 153.047ZM8.15813 169.56C7.48195 169.286 6.97332 169.008 6.66648 168.83C7.18587 169.131 7.69511 169.371 8.15813 169.56ZM273.18 67.4458C273.18 74.3494 267.584 79.9458 260.68 79.9458C253.777 79.9458 248.18 74.3494 248.18 67.4458C248.18 60.5422 253.777 54.9458 260.68 54.9458C267.584 54.9458 273.18 60.5422 273.18 67.4458Z" fill="black"/>
</svg>
